<svg xmlns="http://www.w3.org/2000/svg" width="346.667" height="346.667" preserveAspectRatio="xMidYMid meet" version="1.0" viewBox="0 0 260 260"><metadata>Created by potrace 1.14, written by Peter Selinger 2001-2017</metadata><g fill="#000" stroke="none"><path d="M122 2230 c-18 -16 -42 -35 -53 -41 -11 -6 -25 -24 -31 -40 -5 -16 -16 -29 -24 -29 -12 0 -14 -110 -14 -725 0 -634 2 -725 15 -725 8 0 18 -12 21 -26 9 -34 78 -104 103 -104 10 0 24 -7 31 -15 11 -13 77 -15 481 -15 412 0 469 -2 483 -16 20 -20 22 -107 2 -123 -9 -8 -85 -12 -232 -14 -194 -2 -221 -4 -237 -20 -16 -16 -16 -19 -1 -42 l16 -24 619 -1 620 0 19 22 c22 27 17 38 -16 38 -14 0 -27 6 -29 13 -4 9 -54 12 -208 10 -126 -1 -207 3 -214 9 -8 6 -13 35 -13 73 0 58 2 63 24 69 13 3 225 5 469 5 393 -1 449 1 469 15 12 9 30 16 39 16 22 0 99 85 99 109 0 11 4 23 10 26 6 4 5 13 -2 25 -10 15 -9 22 4 37 15 16 15 22 2 52 -10 24 -11 37 -3 47 7 9 7 19 -1 35 -9 16 -9 31 0 64 9 33 9 48 0 66 -11 20 -10 25 8 40 21 16 21 19 7 74 -9 32 -17 61 -20 64 -2 4 0 13 5 21 5 8 4 22 -2 34 -9 16 -6 23 13 39 14 12 19 21 12 25 -13 8 -16 122 -4 122 12 0 13 318 1 325 -6 4 -7 13 -1 23 5 9 9 74 10 144 1 116 0 129 -19 148 -12 12 -20 33 -20 52 0 24 -10 43 -42 75 -24 25 -52 43 -64 43 -12 0 -27 7 -34 15 -11 13 -150 15 -1139 15 l-1127 0 -32 -30z m1398 -43 c558 -3 864 -8 881 -15 43 -17 80 -58 90 -99 12 -54 11 -69 -7 -88 -15 -15 -116 -16 -1191 -13 -1145 3 -1175 4 -1189 23 -29 40 -4 126 49 166 28 21 46 25 147 29 63 3 171 4 240 3 69 -1 510 -4 980 -6z m-1207 -351 l26 -25 0 -183 c0 -101 -3 -193 -6 -205 -6 -28 -48 -56 -72 -48 -35 11 -40 46 -35 251 5 191 6 200 27 216 28 23 29 22 60 -6z m19 -684 c7 -104 -6 -146 -49 -150 -58 -6 -71 48 -54 220 1 4 13 14 28 22 23 12 30 12 49 0 18 -12 22 -27 26 -92z m2140 -393 c36 -19 5 -98 -56 -143 -27 -21 -31 -21 -1084 -18 -581 1 -1079 5 -1107 8 -27 3 -60 12 -72 20 -29 18 -65 89 -61 117 3 20 10 22 98 27 189 10 2261 0 2282 -11z m-1128 -281 c9 -12 16 -39 16 -60 0 -32 -4 -39 -25 -44 -38 -9 -72 3 -79 28 -12 46 -7 86 12 91 39 10 62 6 76 -15z" transform="translate(0.000000,260.000000) scale(0.100000,-0.100000)"/></g></svg>